<?xml version="1.0" encoding="utf-8"?>
<!-- Generator: Adobe Illustrator 22.0.1, SVG Export Plug-In . SVG Version: 6.00 Build 0)  -->
<svg version="1.1" id="Слой_1" xmlns="http://www.w3.org/2000/svg" xmlns:xlink="http://www.w3.org/1999/xlink" x="0px" y="0px"
	 viewBox="0 0 587 104" style="enable-background:new 0 0 587 104;" xml:space="preserve">
<style type="text/css">
	.st0{fill:url(#SVGID_1_);}
	.st1{fill:url(#SVGID_2_);}
	.st2{fill:url(#SVGID_3_);}
	.st3{fill:url(#SVGID_4_);}
	.st4{fill:url(#SVGID_5_);}
	.st5{fill:url(#SVGID_6_);}
	.st6{fill:url(#SVGID_7_);}
	.st7{fill:url(#SVGID_8_);}
	.st8{fill:url(#SVGID_9_);}
	.st9{fill:url(#SVGID_10_);}
	.st10{fill:url(#SVGID_11_);}
	.st11{fill:none;stroke:url(#SVGID_12_);}
	.st12{fill:none;stroke:url(#SVGID_13_);}
	.st13{fill:none;stroke:url(#SVGID_14_);}
	.st14{fill:none;stroke:url(#SVGID_15_);}
	.st15{fill:none;stroke:url(#SVGID_16_);}
	.st16{fill:none;stroke:url(#SVGID_17_);}
	.st17{fill:none;stroke:url(#SVGID_18_);}
	.st18{fill:none;stroke:url(#SVGID_19_);}
	.st19{fill:none;stroke:url(#SVGID_20_);}
	.st20{fill:none;stroke:url(#SVGID_21_);}
	.st21{fill:none;stroke:url(#SVGID_22_);}
</style>
<g id="new_logo">
	<g>
		<g id="teens_7_">
			<linearGradient id="SVGID_1_" gradientUnits="userSpaceOnUse" x1="321.4237" y1="53.0511" x2="580.7772" y2="53.0511">
				<stop  offset="0" style="stop-color:#ECEAE8"/>
				<stop  offset="0" style="stop-color:#E5E3E0"/>
				<stop  offset="6.428196e-02" style="stop-color:#D6D4D2"/>
				<stop  offset="0.187" style="stop-color:#B0ADAF"/>
				<stop  offset="0.264" style="stop-color:#959296"/>
				<stop  offset="0.5225" style="stop-color:#F8F8F7"/>
				<stop  offset="0.5874" style="stop-color:#EAE9E9"/>
				<stop  offset="0.7119" style="stop-color:#C4C2C3"/>
				<stop  offset="0.8764" style="stop-color:#898689"/>
				<stop  offset="1" style="stop-color:#D9D9D9"/>
				<stop  offset="1" style="stop-color:#B1B1B0"/>
			</linearGradient>
			<path class="st0" d="M577.5,11.4h-9.2h-0.5H324.7l-3.2-1.5l3.2,15.8c0.1-0.8,0.2-1.6,0.4-2.3c0.2-0.8,0.5-1.6,0.9-2.3
				c1.6-3.2,4.2-4.7,7.7-4.7H350l0,1l0.1,44.7v26.3c-0.2,2.3-1.5,4.4-3.8,6.1c-1.2,0.9-2.4,1.5-3.5,1.9h24.8c-1.2-0.4-2.3-1-3.5-1.9
				c-1.2-0.9-2.2-1.8-2.8-2.8c-0.7-1-1-2.1-1-3.3V62l0.1-44.7v-1h207.5h0.5h0.2c3.5,0,6,1.6,7.6,4.7c0.8,1.6,1.3,3.1,1.4,4.7
				l3.2-15.8L577.5,11.4z"/>
			<g>
				<linearGradient id="SVGID_2_" gradientUnits="userSpaceOnUse" x1="379.2681" y1="55.644" x2="413.8015" y2="55.644">
					<stop  offset="0" style="stop-color:#ECEAE8"/>
					<stop  offset="0" style="stop-color:#E5E3E0"/>
					<stop  offset="6.428196e-02" style="stop-color:#D6D4D2"/>
					<stop  offset="0.187" style="stop-color:#B0ADAF"/>
					<stop  offset="0.264" style="stop-color:#959296"/>
					<stop  offset="0.5225" style="stop-color:#F8F8F7"/>
					<stop  offset="0.5874" style="stop-color:#EAE9E9"/>
					<stop  offset="0.7119" style="stop-color:#C4C2C3"/>
					<stop  offset="0.8764" style="stop-color:#898689"/>
					<stop  offset="1" style="stop-color:#D9D9D9"/>
					<stop  offset="1" style="stop-color:#B1B1B0"/>
				</linearGradient>
				<path class="st1" d="M379.3,26.5h31l2.3-1.1l-2.3,11c-0.1-1.1-0.4-2.2-1-3.3c-1.1-2.2-2.9-3.3-5.3-3.3h-11.5v22.6h12.6
					c1.2,0,2.4-0.2,3.4-0.5c1-0.4,1.9-0.8,2.7-1.5l-1.5,11.8c0-1.1-0.4-2.1-1-3.2c-1.3-2.1-3.5-3.2-6.5-3.2h-9.7v22.5
					c0.6,0.8,1.6,1.7,2.8,2.5c2.4,1.7,5.1,2.5,7.8,2.5c2.8,0,5.4-1.3,7.9-4c1.2-1.4,2.2-2.7,2.8-4l-1.2,10.4h-32.3
					c0.8-0.3,1.7-0.8,2.6-1.4c1.7-1.3,2.6-2.8,2.6-4.6c0-2.8,0-19.3-0.1-49.4C384.5,28.7,382.5,27.4,379.3,26.5z"/>
			</g>
			<g>
				<linearGradient id="SVGID_3_" gradientUnits="userSpaceOnUse" x1="425.0753" y1="55.644" x2="459.6087" y2="55.644">
					<stop  offset="0" style="stop-color:#ECEAE8"/>
					<stop  offset="0" style="stop-color:#E5E3E0"/>
					<stop  offset="6.428196e-02" style="stop-color:#D6D4D2"/>
					<stop  offset="0.187" style="stop-color:#B0ADAF"/>
					<stop  offset="0.264" style="stop-color:#959296"/>
					<stop  offset="0.5225" style="stop-color:#F8F8F7"/>
					<stop  offset="0.5874" style="stop-color:#EAE9E9"/>
					<stop  offset="0.7119" style="stop-color:#C4C2C3"/>
					<stop  offset="0.8764" style="stop-color:#898689"/>
					<stop  offset="1" style="stop-color:#D9D9D9"/>
					<stop  offset="1" style="stop-color:#B1B1B0"/>
				</linearGradient>
				<path class="st2" d="M425.1,26.5h31l2.3-1.1l-2.3,11c-0.1-1.1-0.4-2.2-1-3.3c-1.1-2.2-2.9-3.3-5.3-3.3h-11.5v22.6H451
					c1.2,0,2.4-0.2,3.4-0.5c1-0.4,1.9-0.8,2.7-1.5l-1.5,11.8c0-1.1-0.4-2.1-1-3.2c-1.3-2.1-3.5-3.2-6.5-3.2h-9.7v22.5
					c0.6,0.8,1.6,1.7,2.8,2.5c2.4,1.7,5.1,2.5,7.8,2.5c2.8,0,5.4-1.3,7.9-4c1.2-1.4,2.2-2.7,2.8-4l-1.2,10.4h-32.3
					c0.8-0.3,1.7-0.8,2.6-1.4c1.7-1.3,2.6-2.8,2.6-4.6c0-2.8,0-19.3-0.1-49.4C430.3,28.7,428.3,27.4,425.1,26.5z"/>
			</g>
			<g>
				<linearGradient id="SVGID_4_" gradientUnits="userSpaceOnUse" x1="470.3063" y1="55.644" x2="531.6631" y2="55.644">
					<stop  offset="0" style="stop-color:#ECEAE8"/>
					<stop  offset="0" style="stop-color:#E5E3E0"/>
					<stop  offset="6.428196e-02" style="stop-color:#D6D4D2"/>
					<stop  offset="0.187" style="stop-color:#B0ADAF"/>
					<stop  offset="0.264" style="stop-color:#959296"/>
					<stop  offset="0.5225" style="stop-color:#F8F8F7"/>
					<stop  offset="0.5874" style="stop-color:#EAE9E9"/>
					<stop  offset="0.7119" style="stop-color:#C4C2C3"/>
					<stop  offset="0.8764" style="stop-color:#898689"/>
					<stop  offset="1" style="stop-color:#D9D9D9"/>
					<stop  offset="1" style="stop-color:#B1B1B0"/>
				</linearGradient>
				<path class="st3" d="M514.3,25.4h17.3c-0.8,0.3-1.6,0.7-2.5,1.3c-0.8,0.6-1.5,1.3-2,2c-0.5,0.7-0.7,1.5-0.7,2.3v54.9l0-0.1v0.1
					l-44-45.6v40.1c0,0.8,0.2,1.6,0.7,2.3c0.5,0.7,1.1,1.4,2,2c0.8,0.6,1.6,1.1,2.5,1.3h-17.3c0.8-0.3,1.6-0.7,2.5-1.3
					c0.8-0.6,1.5-1.3,2-2c0.5-0.7,0.7-1.5,0.7-2.3V25.4l44,46.2V31c0-0.8-0.2-1.6-0.7-2.3c-0.5-0.7-1.1-1.4-2-2
					C515.9,26.1,515.1,25.7,514.3,25.4z"/>
			</g>
			<g>
				<linearGradient id="SVGID_5_" gradientUnits="userSpaceOnUse" x1="537.6365" y1="55.644" x2="567.9883" y2="55.644">
					<stop  offset="0" style="stop-color:#ECEAE8"/>
					<stop  offset="0" style="stop-color:#E5E3E0"/>
					<stop  offset="6.428196e-02" style="stop-color:#D6D4D2"/>
					<stop  offset="0.187" style="stop-color:#B0ADAF"/>
					<stop  offset="0.264" style="stop-color:#959296"/>
					<stop  offset="0.5225" style="stop-color:#F8F8F7"/>
					<stop  offset="0.5874" style="stop-color:#EAE9E9"/>
					<stop  offset="0.7119" style="stop-color:#C4C2C3"/>
					<stop  offset="0.8764" style="stop-color:#898689"/>
					<stop  offset="1" style="stop-color:#D9D9D9"/>
					<stop  offset="1" style="stop-color:#B1B1B0"/>
				</linearGradient>
				<path class="st4" d="M537.8,81.6c-0.3-2.9,0-6.5,0.9-10.7c0,3.9,1.4,6.8,4.3,8.9c2.1,1.5,4.6,2.3,7.4,2.3c2.5,0,5-0.8,7.5-2.5
					c2.9-1.9,4.3-4.3,4.3-7c0-2.7-1.2-5.6-3.5-8.5c-0.7-0.9-1.8-2.1-3.2-3.5c-1.4-1.4-3.2-3-5.2-4.9c-2-1.8-3.7-3.4-5.1-4.8
					c-1.4-1.4-2.4-2.6-3.2-3.6c-2.2-2.9-3.3-5.9-3.3-8.9c0-3.5,1.4-6.5,4.2-9c3-2.7,7-4,11.8-4c4.2,0,7.4,0.4,9.5,1.2
					c1.1,0.4,1.7,0.8,2,1.2l-1.9,10.5c0-2.1-0.7-4.1-2.2-6.1c-1.8-2.5-4.3-3.8-7.3-3.8c-3.3,0-5.8,0.7-7.6,2
					c-1.7,1.3-2.5,3.2-2.5,5.6c0,3.9,3.4,8.7,10.3,14.4c4.2,3.5,7,6,8.4,7.6c3,3.5,4.5,7,4.5,10.5c0,5.6-2.6,10.1-7.7,13.5
					c-4.1,2.7-8.3,4-12.8,4c-2.9,0-5.4-0.7-7.4-2.2C539,83,538.2,82.3,537.8,81.6z"/>
			</g>
		</g>
		<g id="game_7_">
			<g>
				<linearGradient id="SVGID_6_" gradientUnits="userSpaceOnUse" x1="3" y1="54.7582" x2="86.5233" y2="54.7582">
					<stop  offset="0" style="stop-color:#ECEAE8"/>
					<stop  offset="0" style="stop-color:#E5E3E0"/>
					<stop  offset="6.428196e-02" style="stop-color:#D6D4D2"/>
					<stop  offset="0.187" style="stop-color:#B0ADAF"/>
					<stop  offset="0.264" style="stop-color:#959296"/>
					<stop  offset="0.5225" style="stop-color:#F8F8F7"/>
					<stop  offset="0.5874" style="stop-color:#EAE9E9"/>
					<stop  offset="0.7119" style="stop-color:#C4C2C3"/>
					<stop  offset="0.8764" style="stop-color:#898689"/>
					<stop  offset="1" style="stop-color:#D9D9D9"/>
					<stop  offset="1" style="stop-color:#B1B1B0"/>
				</linearGradient>
				<path class="st5" d="M67.6,88.9V62.2c0.2-0.6,0-1.4-0.6-2.2c-1.2-1.7-3.9-3.1-8.1-4.1h27.6c-4.2,1.1-6.9,2.4-8.1,4.1
					c-0.6,0.8-0.9,1.6-0.6,2.2V92c-1.3,1-3.3,2-6.1,3c-5.7,2-12.4,3-20.3,3c-14.2,0-25.5-3.4-34-10.3C12.6,83.8,9,79,6.7,73.2
					C4.4,67.5,3.1,60.8,3,53c-0.1-3.5,0.3-6.9,1.1-10.4c0.8-3.4,2.1-6.9,3.9-10.3c1.8-3.5,4-6.5,6.6-9.2c2.6-2.7,5.6-4.9,9-6.6
					c3.4-1.8,7.2-3.1,11.4-3.9c4.2-0.8,8.8-1.2,13.7-1c8,0.3,14.5,0.8,19.5,1.6c5,0.8,8.5,1.4,10.5,2.1l-2.9,19.1
					c-0.6-3.2-2.1-6.3-4.6-9.5c-5-6.3-12.2-9.5-21.6-9.5c-11.5,0-20.5,3.3-27.1,10c-6.7,6.7-10,16-10,27.9
					c0,11.3,4.6,20.9,13.8,28.8c4.3,3.7,8.7,6.4,13.4,8.1c4.7,1.8,9.6,2.7,14.7,2.8c2.9,0.1,5.4-0.2,7.6-0.9
					C64.1,91.4,66,90.3,67.6,88.9z"/>
			</g>
			<g>
				<linearGradient id="SVGID_7_" gradientUnits="userSpaceOnUse" x1="82.8152" y1="55.644" x2="141.2184" y2="55.644">
					<stop  offset="0" style="stop-color:#ECEAE8"/>
					<stop  offset="0" style="stop-color:#E5E3E0"/>
					<stop  offset="6.428196e-02" style="stop-color:#D6D4D2"/>
					<stop  offset="0.187" style="stop-color:#B0ADAF"/>
					<stop  offset="0.264" style="stop-color:#959296"/>
					<stop  offset="0.5225" style="stop-color:#F8F8F7"/>
					<stop  offset="0.5874" style="stop-color:#EAE9E9"/>
					<stop  offset="0.7119" style="stop-color:#C4C2C3"/>
					<stop  offset="0.8764" style="stop-color:#898689"/>
					<stop  offset="1" style="stop-color:#D9D9D9"/>
					<stop  offset="1" style="stop-color:#B1B1B0"/>
				</linearGradient>
				<path class="st6" d="M141.2,85.9h-19.1c0.9-1.3,2.4-2.3,4.6-2.9L119,62.9h-16.7l-6.4,19.1c0,1.2,0.8,2.2,2.3,3
					c0.8,0.4,1.6,0.7,2.3,0.9H82.8c2.6-0.3,4.6-1.3,6.1-3.1c0.4-0.4,0.7-0.9,0.9-1.3c0.2-0.4,0.4-0.8,0.6-1.2l20.7-54.9
					c7,17.1,12.5,30.3,16.4,39.5c3.9,9.2,6.1,14.5,6.8,15.9c0.8,1.7,2.2,3,4.2,4.1c0.5,0.3,1,0.5,1.4,0.6
					C140.4,85.7,140.8,85.8,141.2,85.9z M103.2,59.2l14.8,0.1l-7.3-20.4L103.2,59.2z"/>
			</g>
			<g>
				<linearGradient id="SVGID_8_" gradientUnits="userSpaceOnUse" x1="143.3156" y1="55.644" x2="218.8528" y2="55.644">
					<stop  offset="0" style="stop-color:#ECEAE8"/>
					<stop  offset="0" style="stop-color:#E5E3E0"/>
					<stop  offset="6.428196e-02" style="stop-color:#D6D4D2"/>
					<stop  offset="0.187" style="stop-color:#B0ADAF"/>
					<stop  offset="0.264" style="stop-color:#959296"/>
					<stop  offset="0.5225" style="stop-color:#F8F8F7"/>
					<stop  offset="0.5874" style="stop-color:#EAE9E9"/>
					<stop  offset="0.7119" style="stop-color:#C4C2C3"/>
					<stop  offset="0.8764" style="stop-color:#898689"/>
					<stop  offset="1" style="stop-color:#D9D9D9"/>
					<stop  offset="1" style="stop-color:#B1B1B0"/>
				</linearGradient>
				<path class="st7" d="M179.8,84.7L179.8,84.7L179.8,84.7L179.8,84.7l-0.3-0.2L159.5,47l-4.2,30.7v1.9c0.2,1.6,1,3,2.7,4.2
					c0.8,0.6,1.6,1.1,2.5,1.3h-17.2c0.4-0.1,0.8-0.3,1.2-0.5c0.4-0.2,0.8-0.5,1.2-0.8c0.8-0.6,1.5-1.3,1.9-1.9
					c0.4-0.7,0.7-1.4,0.8-2.3l6.9-54.3l24.3,49.2l25.1-48.5l9,54.3c0.1,1.6,1,3,2.7,4.2c0.9,0.6,1.7,1,2.4,1.3h-17.1
					c0.7-0.3,1.6-0.7,2.4-1.3c0.8-0.6,1.5-1.3,1.9-2c0.5-0.7,0.7-1.4,0.7-2.3v-1.9l-6.9-30L179.8,84.7z"/>
			</g>
			<g>
				<linearGradient id="SVGID_9_" gradientUnits="userSpaceOnUse" x1="225.7115" y1="55.644" x2="260.2449" y2="55.644">
					<stop  offset="0" style="stop-color:#ECEAE8"/>
					<stop  offset="0" style="stop-color:#E5E3E0"/>
					<stop  offset="6.428196e-02" style="stop-color:#D6D4D2"/>
					<stop  offset="0.187" style="stop-color:#B0ADAF"/>
					<stop  offset="0.264" style="stop-color:#959296"/>
					<stop  offset="0.5225" style="stop-color:#F8F8F7"/>
					<stop  offset="0.5874" style="stop-color:#EAE9E9"/>
					<stop  offset="0.7119" style="stop-color:#C4C2C3"/>
					<stop  offset="0.8764" style="stop-color:#898689"/>
					<stop  offset="1" style="stop-color:#D9D9D9"/>
					<stop  offset="1" style="stop-color:#B1B1B0"/>
				</linearGradient>
				<path class="st8" d="M225.7,26.5h31l2.3-1.1l-2.3,11c-0.1-1.1-0.4-2.2-1-3.3c-1.1-2.2-2.9-3.3-5.3-3.3h-11.5v22.6h12.6
					c1.2,0,2.4-0.2,3.4-0.5c1-0.4,1.9-0.8,2.7-1.5l-1.5,11.8c0-1.1-0.4-2.1-1-3.2c-1.3-2.1-3.5-3.2-6.5-3.2h-9.7v22.5
					c0.6,0.8,1.6,1.7,2.8,2.5c2.4,1.7,5.1,2.5,7.8,2.5c2.8,0,5.4-1.3,7.9-4c1.2-1.4,2.2-2.7,2.8-4L259,85.9h-32.3
					c0.8-0.3,1.7-0.8,2.6-1.4c1.7-1.3,2.6-2.8,2.6-4.6c0-2.8,0-19.3-0.1-49.4C230.9,28.7,228.9,27.4,225.7,26.5z"/>
			</g>
		</g>
		<g>
			<linearGradient id="SVGID_10_" gradientUnits="userSpaceOnUse" x1="274.3415" y1="57.0884" x2="310.6238" y2="57.0884">
				<stop  offset="0" style="stop-color:#ECEAE8"/>
				<stop  offset="0" style="stop-color:#E5E3E0"/>
				<stop  offset="6.428196e-02" style="stop-color:#D6D4D2"/>
				<stop  offset="0.187" style="stop-color:#B0ADAF"/>
				<stop  offset="0.264" style="stop-color:#959296"/>
				<stop  offset="0.5225" style="stop-color:#F8F8F7"/>
				<stop  offset="0.5874" style="stop-color:#EAE9E9"/>
				<stop  offset="0.7119" style="stop-color:#C4C2C3"/>
				<stop  offset="0.8764" style="stop-color:#898689"/>
				<stop  offset="1" style="stop-color:#D9D9D9"/>
				<stop  offset="1" style="stop-color:#B1B1B0"/>
			</linearGradient>
			<path class="st9" d="M283.7,40.9c1.6-0.7,3.1-1.3,4.7-1.6c1.5-0.3,3.1-0.4,4.7-0.4c2.1,0.1,4.1,0.5,6.1,1.3
				c1.9,0.8,3.8,2.1,5.6,3.8c3.9,3.8,5.9,8.4,5.9,13.7c0,5.3-2,9.6-6.1,13c-3.5,2.9-7.3,4.4-11.5,4.4c-4.5,0-8.5-1.3-12.1-3.8
				c-4.5-3.2-6.7-7.8-6.7-13.7C274.3,49.4,277.5,43.8,283.7,40.9z M282.5,45.5c-2.4,2.8-3.6,6.7-3.6,11.5c0,4.9,1.2,8.7,3.6,11.6
				c1.7,2,3.9,3.4,6.6,4.2V41.4C286.4,42.2,284.2,43.6,282.5,45.5z M291.4,73.4V40.9c-0.2,0-0.4,0.1-0.6,0.1c-0.2,0-0.4,0.1-0.6,0.1
				v32C290.6,73.2,291,73.3,291.4,73.4z M293.2,40.9v32.5c0.4,0,0.9,0,1.4-0.1V41.2c-0.2-0.1-0.5-0.1-0.7-0.2
				C293.7,41,293.4,40.9,293.2,40.9z M295.7,41.5v31.7c2.7-0.6,5-1.8,6.7-3.7c2.5-2.7,3.7-6.6,3.7-11.6c0-5-1.2-9-3.7-12
				C300.7,43.8,298.4,42.3,295.7,41.5z"/>
			<linearGradient id="SVGID_11_" gradientUnits="userSpaceOnUse" x1="310.8189" y1="57.0843" x2="330.8121" y2="57.0843">
				<stop  offset="0" style="stop-color:#ECEAE8"/>
				<stop  offset="0" style="stop-color:#E5E3E0"/>
				<stop  offset="6.428196e-02" style="stop-color:#D6D4D2"/>
				<stop  offset="0.187" style="stop-color:#B0ADAF"/>
				<stop  offset="0.264" style="stop-color:#959296"/>
				<stop  offset="0.5225" style="stop-color:#F8F8F7"/>
				<stop  offset="0.5874" style="stop-color:#EAE9E9"/>
				<stop  offset="0.7119" style="stop-color:#C4C2C3"/>
				<stop  offset="0.8764" style="stop-color:#898689"/>
				<stop  offset="1" style="stop-color:#D9D9D9"/>
				<stop  offset="1" style="stop-color:#B1B1B0"/>
			</linearGradient>
			<path class="st10" d="M318.8,55.2h7.6c0.7,0,1.4-0.1,2-0.3c0.6-0.2,1.1-0.5,1.6-0.9l-0.9,7.1c0-0.6-0.2-1.3-0.6-1.9
				c-0.8-1.3-2.1-1.9-3.9-1.9h-5.8v13.5l0,0.6v0.6c0,0.5,0.1,1,0.4,1.4c0.3,0.4,0.7,0.8,1.2,1.2c0.5,0.4,1,0.6,1.5,0.8h-10.4
				c0.5-0.2,1-0.4,1.5-0.8c1-0.7,1.5-1.6,1.6-2.6V60.8h0l0-18.8c-0.5-1.1-1.8-1.9-3.7-2.5h18.6l1.4-0.6l-1.4,6.6
				c-0.1-0.7-0.3-1.3-0.6-2c-0.7-1.3-1.7-2-3.2-2h-6.9V55.2z"/>
		</g>
	</g>
	<g>
		
			<image style="overflow:visible;opacity:0.3;" width="610" height="121" xlink:href="254DF16B.png"  transform="matrix(1 0 0 1 -8.2228 -1.6317)">
		</image>
		<g>
			<g id="teens_6_">
				
					<linearGradient id="SVGID_12_" gradientUnits="userSpaceOnUse" x1="-291.7772" y1="690.5469" x2="286" y2="690.5469" gradientTransform="matrix(1 0 0 1 294.7772 -636.6317)">
					<stop  offset="0" style="stop-color:#ECEAE8"/>
					<stop  offset="0" style="stop-color:#DFDCD9"/>
					<stop  offset="0" style="stop-color:#D4D0CC"/>
					<stop  offset="6.975419e-02" style="stop-color:#C5C2BE"/>
					<stop  offset="0.1461" style="stop-color:#B0ADAA"/>
					<stop  offset="0.5225" style="stop-color:#E6E6E6"/>
					<stop  offset="0.633" style="stop-color:#D9D8D7"/>
					<stop  offset="0.8443" style="stop-color:#B6B3B0"/>
					<stop  offset="0.8764" style="stop-color:#B0ADAA"/>
					<stop  offset="1" style="stop-color:#D9D9D9"/>
					<stop  offset="1" style="stop-color:#B1B1B0"/>
				</linearGradient>
				<path class="st11" d="M577.5,11.4h-9.2h-0.5H324.7l-3.2-1.5l3.2,15.8c0.1-0.8,0.2-1.6,0.4-2.3c0.2-0.8,0.5-1.6,0.9-2.3
					c1.6-3.2,4.2-4.7,7.7-4.7H350l0,1l0.1,44.7v26.3c-0.2,2.3-1.5,4.4-3.8,6.1c-1.2,0.9-2.4,1.5-3.5,1.9h24.8
					c-1.2-0.4-2.3-1-3.5-1.9c-1.2-0.9-2.2-1.8-2.8-2.8c-0.7-1-1-2.1-1-3.3V62l0.1-44.7v-1h207.5h0.5h0.2c3.5,0,6,1.6,7.6,4.7
					c0.8,1.6,1.3,3.1,1.4,4.7l3.2-15.8L577.5,11.4z"/>
				<g>
					
						<linearGradient id="SVGID_13_" gradientUnits="userSpaceOnUse" x1="-291.7772" y1="690.5469" x2="286" y2="690.5469" gradientTransform="matrix(1 0 0 1 294.7772 -636.6317)">
						<stop  offset="0" style="stop-color:#ECEAE8"/>
						<stop  offset="0" style="stop-color:#DFDCD9"/>
						<stop  offset="0" style="stop-color:#D4D0CC"/>
						<stop  offset="6.975419e-02" style="stop-color:#C5C2BE"/>
						<stop  offset="0.1461" style="stop-color:#B0ADAA"/>
						<stop  offset="0.5225" style="stop-color:#E6E6E6"/>
						<stop  offset="0.633" style="stop-color:#D9D8D7"/>
						<stop  offset="0.8443" style="stop-color:#B6B3B0"/>
						<stop  offset="0.8764" style="stop-color:#B0ADAA"/>
						<stop  offset="1" style="stop-color:#D9D9D9"/>
						<stop  offset="1" style="stop-color:#B1B1B0"/>
					</linearGradient>
					<path class="st12" d="M379.3,26.5h31l2.3-1.1l-2.3,11c-0.1-1.1-0.4-2.2-1-3.3c-1.1-2.2-2.9-3.3-5.3-3.3h-11.5v22.6h12.6
						c1.2,0,2.4-0.2,3.4-0.5c1-0.4,1.9-0.8,2.7-1.5l-1.5,11.8c0-1.1-0.4-2.1-1-3.2c-1.3-2.1-3.5-3.2-6.5-3.2h-9.7v22.5
						c0.6,0.8,1.6,1.7,2.8,2.5c2.4,1.7,5.1,2.5,7.8,2.5c2.8,0,5.4-1.3,7.9-4c1.2-1.4,2.2-2.7,2.8-4l-1.2,10.4h-32.3
						c0.8-0.3,1.7-0.8,2.6-1.4c1.7-1.3,2.6-2.8,2.6-4.6c0-2.8,0-19.3-0.1-49.4C384.5,28.7,382.5,27.4,379.3,26.5z"/>
				</g>
				<g>
					
						<linearGradient id="SVGID_14_" gradientUnits="userSpaceOnUse" x1="-291.7772" y1="690.5469" x2="286" y2="690.5469" gradientTransform="matrix(1 0 0 1 294.7772 -636.6317)">
						<stop  offset="0" style="stop-color:#ECEAE8"/>
						<stop  offset="0" style="stop-color:#DFDCD9"/>
						<stop  offset="0" style="stop-color:#D4D0CC"/>
						<stop  offset="6.975419e-02" style="stop-color:#C5C2BE"/>
						<stop  offset="0.1461" style="stop-color:#B0ADAA"/>
						<stop  offset="0.5225" style="stop-color:#E6E6E6"/>
						<stop  offset="0.633" style="stop-color:#D9D8D7"/>
						<stop  offset="0.8443" style="stop-color:#B6B3B0"/>
						<stop  offset="0.8764" style="stop-color:#B0ADAA"/>
						<stop  offset="1" style="stop-color:#D9D9D9"/>
						<stop  offset="1" style="stop-color:#B1B1B0"/>
					</linearGradient>
					<path class="st13" d="M425.1,26.5h31l2.3-1.1l-2.3,11c-0.1-1.1-0.4-2.2-1-3.3c-1.1-2.2-2.9-3.3-5.3-3.3h-11.5v22.6H451
						c1.2,0,2.4-0.2,3.4-0.5c1-0.4,1.9-0.8,2.7-1.5l-1.5,11.8c0-1.1-0.4-2.1-1-3.2c-1.3-2.1-3.5-3.2-6.5-3.2h-9.7v22.5
						c0.6,0.8,1.6,1.7,2.8,2.5c2.4,1.7,5.1,2.5,7.8,2.5c2.8,0,5.4-1.3,7.9-4c1.2-1.4,2.2-2.7,2.8-4l-1.2,10.4h-32.3
						c0.8-0.3,1.7-0.8,2.6-1.4c1.7-1.3,2.6-2.8,2.6-4.6c0-2.8,0-19.3-0.1-49.4C430.3,28.7,428.3,27.4,425.1,26.5z"/>
				</g>
				<g>
					
						<linearGradient id="SVGID_15_" gradientUnits="userSpaceOnUse" x1="-291.7772" y1="690.5469" x2="286" y2="690.5469" gradientTransform="matrix(1 0 0 1 294.7772 -636.6317)">
						<stop  offset="0" style="stop-color:#ECEAE8"/>
						<stop  offset="0" style="stop-color:#DFDCD9"/>
						<stop  offset="0" style="stop-color:#D4D0CC"/>
						<stop  offset="6.975419e-02" style="stop-color:#C5C2BE"/>
						<stop  offset="0.1461" style="stop-color:#B0ADAA"/>
						<stop  offset="0.5225" style="stop-color:#E6E6E6"/>
						<stop  offset="0.633" style="stop-color:#D9D8D7"/>
						<stop  offset="0.8443" style="stop-color:#B6B3B0"/>
						<stop  offset="0.8764" style="stop-color:#B0ADAA"/>
						<stop  offset="1" style="stop-color:#D9D9D9"/>
						<stop  offset="1" style="stop-color:#B1B1B0"/>
					</linearGradient>
					<path class="st14" d="M514.3,25.4h17.3c-0.8,0.3-1.6,0.7-2.5,1.3c-0.8,0.6-1.5,1.3-2,2c-0.5,0.7-0.7,1.5-0.7,2.3v54.9l0-0.1
						v0.1l-44-45.6v40.1c0,0.8,0.2,1.6,0.7,2.3c0.5,0.7,1.1,1.4,2,2c0.8,0.6,1.6,1.1,2.5,1.3h-17.3c0.8-0.3,1.6-0.7,2.5-1.3
						c0.8-0.6,1.5-1.3,2-2c0.5-0.7,0.7-1.5,0.7-2.3V25.4l44,46.2V31c0-0.8-0.2-1.6-0.7-2.3c-0.5-0.7-1.1-1.4-2-2
						C515.9,26.1,515.1,25.7,514.3,25.4z"/>
				</g>
				<g>
					
						<linearGradient id="SVGID_16_" gradientUnits="userSpaceOnUse" x1="-291.7772" y1="690.5469" x2="286" y2="690.5469" gradientTransform="matrix(1 0 0 1 294.7772 -636.6317)">
						<stop  offset="0" style="stop-color:#ECEAE8"/>
						<stop  offset="0" style="stop-color:#DFDCD9"/>
						<stop  offset="0" style="stop-color:#D4D0CC"/>
						<stop  offset="6.975419e-02" style="stop-color:#C5C2BE"/>
						<stop  offset="0.1461" style="stop-color:#B0ADAA"/>
						<stop  offset="0.5225" style="stop-color:#E6E6E6"/>
						<stop  offset="0.633" style="stop-color:#D9D8D7"/>
						<stop  offset="0.8443" style="stop-color:#B6B3B0"/>
						<stop  offset="0.8764" style="stop-color:#B0ADAA"/>
						<stop  offset="1" style="stop-color:#D9D9D9"/>
						<stop  offset="1" style="stop-color:#B1B1B0"/>
					</linearGradient>
					<path class="st15" d="M537.8,81.6c-0.3-2.9,0-6.5,0.9-10.7c0,3.9,1.4,6.8,4.3,8.9c2.1,1.5,4.6,2.3,7.4,2.3c2.5,0,5-0.8,7.5-2.5
						c2.9-1.9,4.3-4.3,4.3-7c0-2.7-1.2-5.6-3.5-8.5c-0.7-0.9-1.8-2.1-3.2-3.5c-1.4-1.4-3.2-3-5.2-4.9c-2-1.8-3.7-3.4-5.1-4.8
						c-1.4-1.4-2.4-2.6-3.2-3.6c-2.2-2.9-3.3-5.9-3.3-8.9c0-3.5,1.4-6.5,4.2-9c3-2.7,7-4,11.8-4c4.2,0,7.4,0.4,9.5,1.2
						c1.1,0.4,1.7,0.8,2,1.2l-1.9,10.5c0-2.1-0.7-4.1-2.2-6.1c-1.8-2.5-4.3-3.8-7.3-3.8c-3.3,0-5.8,0.7-7.6,2
						c-1.7,1.3-2.5,3.2-2.5,5.6c0,3.9,3.4,8.7,10.3,14.4c4.2,3.5,7,6,8.4,7.6c3,3.5,4.5,7,4.5,10.5c0,5.6-2.6,10.1-7.7,13.5
						c-4.1,2.7-8.3,4-12.8,4c-2.9,0-5.4-0.7-7.4-2.2C539,83,538.2,82.3,537.8,81.6z"/>
				</g>
			</g>
			<g id="game_6_">
				<g>
					
						<linearGradient id="SVGID_17_" gradientUnits="userSpaceOnUse" x1="-291.7772" y1="690.5469" x2="286" y2="690.5469" gradientTransform="matrix(1 0 0 1 294.7772 -636.6317)">
						<stop  offset="0" style="stop-color:#ECEAE8"/>
						<stop  offset="0" style="stop-color:#DFDCD9"/>
						<stop  offset="0" style="stop-color:#D4D0CC"/>
						<stop  offset="6.975419e-02" style="stop-color:#C5C2BE"/>
						<stop  offset="0.1461" style="stop-color:#B0ADAA"/>
						<stop  offset="0.5225" style="stop-color:#E6E6E6"/>
						<stop  offset="0.633" style="stop-color:#D9D8D7"/>
						<stop  offset="0.8443" style="stop-color:#B6B3B0"/>
						<stop  offset="0.8764" style="stop-color:#B0ADAA"/>
						<stop  offset="1" style="stop-color:#D9D9D9"/>
						<stop  offset="1" style="stop-color:#B1B1B0"/>
					</linearGradient>
					<path class="st16" d="M67.6,88.9V62.2c0.2-0.6,0-1.4-0.6-2.2c-1.2-1.7-3.9-3.1-8.1-4.1h27.6c-4.2,1.1-6.9,2.4-8.1,4.1
						c-0.6,0.8-0.9,1.6-0.6,2.2V92c-1.3,1-3.3,2-6.1,3c-5.7,2-12.4,3-20.3,3c-14.2,0-25.5-3.4-34-10.3C12.6,83.8,9,79,6.7,73.2
						C4.4,67.5,3.1,60.8,3,53c-0.1-3.5,0.3-6.9,1.1-10.4c0.8-3.4,2.1-6.9,3.9-10.3c1.8-3.5,4-6.5,6.6-9.2c2.6-2.7,5.6-4.9,9-6.6
						c3.4-1.8,7.2-3.1,11.4-3.9c4.2-0.8,8.8-1.2,13.7-1c8,0.3,14.5,0.8,19.5,1.6c5,0.8,8.5,1.4,10.5,2.1l-2.9,19.1
						c-0.6-3.2-2.1-6.3-4.6-9.5c-5-6.3-12.2-9.5-21.6-9.5c-11.5,0-20.5,3.3-27.1,10c-6.7,6.7-10,16-10,27.9
						c0,11.3,4.6,20.9,13.8,28.8c4.3,3.7,8.7,6.4,13.4,8.1c4.7,1.8,9.6,2.7,14.7,2.8c2.9,0.1,5.4-0.2,7.6-0.9
						C64.1,91.4,66,90.3,67.6,88.9z"/>
				</g>
				<g>
					
						<linearGradient id="SVGID_18_" gradientUnits="userSpaceOnUse" x1="-291.7772" y1="690.5469" x2="286" y2="690.5469" gradientTransform="matrix(1 0 0 1 294.7772 -636.6317)">
						<stop  offset="0" style="stop-color:#ECEAE8"/>
						<stop  offset="0" style="stop-color:#DFDCD9"/>
						<stop  offset="0" style="stop-color:#D4D0CC"/>
						<stop  offset="6.975419e-02" style="stop-color:#C5C2BE"/>
						<stop  offset="0.1461" style="stop-color:#B0ADAA"/>
						<stop  offset="0.5225" style="stop-color:#E6E6E6"/>
						<stop  offset="0.633" style="stop-color:#D9D8D7"/>
						<stop  offset="0.8443" style="stop-color:#B6B3B0"/>
						<stop  offset="0.8764" style="stop-color:#B0ADAA"/>
						<stop  offset="1" style="stop-color:#D9D9D9"/>
						<stop  offset="1" style="stop-color:#B1B1B0"/>
					</linearGradient>
					<path class="st17" d="M141.2,85.9h-19.1c0.9-1.3,2.4-2.3,4.6-2.9L119,62.9h-16.7l-6.4,19.1c0,1.2,0.8,2.2,2.3,3
						c0.8,0.4,1.6,0.7,2.3,0.9H82.8c2.6-0.3,4.6-1.3,6.1-3.1c0.4-0.4,0.7-0.9,0.9-1.3c0.2-0.4,0.4-0.8,0.6-1.2l20.7-54.9
						c7,17.1,12.5,30.3,16.4,39.5c3.9,9.2,6.1,14.5,6.8,15.9c0.8,1.7,2.2,3,4.2,4.1c0.5,0.3,1,0.5,1.4,0.6
						C140.4,85.7,140.8,85.8,141.2,85.9z M103.2,59.2l14.8,0.1l-7.3-20.4L103.2,59.2z"/>
				</g>
				<g>
					
						<linearGradient id="SVGID_19_" gradientUnits="userSpaceOnUse" x1="-291.7772" y1="690.5469" x2="286" y2="690.5469" gradientTransform="matrix(1 0 0 1 294.7772 -636.6317)">
						<stop  offset="0" style="stop-color:#ECEAE8"/>
						<stop  offset="0" style="stop-color:#DFDCD9"/>
						<stop  offset="0" style="stop-color:#D4D0CC"/>
						<stop  offset="6.975419e-02" style="stop-color:#C5C2BE"/>
						<stop  offset="0.1461" style="stop-color:#B0ADAA"/>
						<stop  offset="0.5225" style="stop-color:#E6E6E6"/>
						<stop  offset="0.633" style="stop-color:#D9D8D7"/>
						<stop  offset="0.8443" style="stop-color:#B6B3B0"/>
						<stop  offset="0.8764" style="stop-color:#B0ADAA"/>
						<stop  offset="1" style="stop-color:#D9D9D9"/>
						<stop  offset="1" style="stop-color:#B1B1B0"/>
					</linearGradient>
					<path class="st18" d="M179.8,84.7L179.8,84.7L179.8,84.7L179.8,84.7l-0.3-0.2L159.5,47l-4.2,30.7v1.9c0.2,1.6,1,3,2.7,4.2
						c0.8,0.6,1.6,1.1,2.5,1.3h-17.2c0.4-0.1,0.8-0.3,1.2-0.5c0.4-0.2,0.8-0.5,1.2-0.8c0.8-0.6,1.5-1.3,1.9-1.9
						c0.4-0.7,0.7-1.4,0.8-2.3l6.9-54.3l24.3,49.2l25.1-48.5l9,54.3c0.1,1.6,1,3,2.7,4.2c0.9,0.6,1.7,1,2.4,1.3h-17.1
						c0.7-0.3,1.6-0.7,2.4-1.3c0.8-0.6,1.5-1.3,1.9-2c0.5-0.7,0.7-1.4,0.7-2.3v-1.9l-6.9-30L179.8,84.7z"/>
				</g>
				<g>
					
						<linearGradient id="SVGID_20_" gradientUnits="userSpaceOnUse" x1="-291.7772" y1="690.5469" x2="286" y2="690.5469" gradientTransform="matrix(1 0 0 1 294.7772 -636.6317)">
						<stop  offset="0" style="stop-color:#ECEAE8"/>
						<stop  offset="0" style="stop-color:#DFDCD9"/>
						<stop  offset="0" style="stop-color:#D4D0CC"/>
						<stop  offset="6.975419e-02" style="stop-color:#C5C2BE"/>
						<stop  offset="0.1461" style="stop-color:#B0ADAA"/>
						<stop  offset="0.5225" style="stop-color:#E6E6E6"/>
						<stop  offset="0.633" style="stop-color:#D9D8D7"/>
						<stop  offset="0.8443" style="stop-color:#B6B3B0"/>
						<stop  offset="0.8764" style="stop-color:#B0ADAA"/>
						<stop  offset="1" style="stop-color:#D9D9D9"/>
						<stop  offset="1" style="stop-color:#B1B1B0"/>
					</linearGradient>
					<path class="st19" d="M225.7,26.5h31l2.3-1.1l-2.3,11c-0.1-1.1-0.4-2.2-1-3.3c-1.1-2.2-2.9-3.3-5.3-3.3h-11.5v22.6h12.6
						c1.2,0,2.4-0.2,3.4-0.5c1-0.4,1.9-0.8,2.7-1.5l-1.5,11.8c0-1.1-0.4-2.1-1-3.2c-1.3-2.1-3.5-3.2-6.5-3.2h-9.7v22.5
						c0.6,0.8,1.6,1.7,2.8,2.5c2.4,1.7,5.1,2.5,7.8,2.5c2.8,0,5.4-1.3,7.9-4c1.2-1.4,2.2-2.7,2.8-4L259,85.9h-32.3
						c0.8-0.3,1.7-0.8,2.6-1.4c1.7-1.3,2.6-2.8,2.6-4.6c0-2.8,0-19.3-0.1-49.4C230.9,28.7,228.9,27.4,225.7,26.5z"/>
				</g>
			</g>
			<g>
				
					<linearGradient id="SVGID_21_" gradientUnits="userSpaceOnUse" x1="-291.7772" y1="690.5469" x2="286" y2="690.5469" gradientTransform="matrix(1 0 0 1 294.7772 -636.6317)">
					<stop  offset="0" style="stop-color:#ECEAE8"/>
					<stop  offset="0" style="stop-color:#DFDCD9"/>
					<stop  offset="0" style="stop-color:#D4D0CC"/>
					<stop  offset="6.975419e-02" style="stop-color:#C5C2BE"/>
					<stop  offset="0.1461" style="stop-color:#B0ADAA"/>
					<stop  offset="0.5225" style="stop-color:#E6E6E6"/>
					<stop  offset="0.633" style="stop-color:#D9D8D7"/>
					<stop  offset="0.8443" style="stop-color:#B6B3B0"/>
					<stop  offset="0.8764" style="stop-color:#B0ADAA"/>
					<stop  offset="1" style="stop-color:#D9D9D9"/>
					<stop  offset="1" style="stop-color:#B1B1B0"/>
				</linearGradient>
				<path class="st20" d="M283.7,40.9c1.6-0.7,3.1-1.3,4.7-1.6c1.5-0.3,3.1-0.4,4.7-0.4c2.1,0.1,4.1,0.5,6.1,1.3
					c1.9,0.8,3.8,2.1,5.6,3.8c3.9,3.8,5.9,8.4,5.9,13.7c0,5.3-2,9.6-6.1,13c-3.5,2.9-7.3,4.4-11.5,4.4c-4.5,0-8.5-1.3-12.1-3.8
					c-4.5-3.2-6.7-7.8-6.7-13.7C274.3,49.4,277.5,43.8,283.7,40.9z M282.5,45.5c-2.4,2.8-3.6,6.7-3.6,11.5c0,4.9,1.2,8.7,3.6,11.6
					c1.7,2,3.9,3.4,6.6,4.2V41.4C286.4,42.2,284.2,43.6,282.5,45.5z M291.4,73.4V40.9c-0.2,0-0.4,0.1-0.6,0.1
					c-0.2,0-0.4,0.1-0.6,0.1v32C290.6,73.2,291,73.3,291.4,73.4z M293.2,40.9v32.5c0.4,0,0.9,0,1.4-0.1V41.2
					c-0.2-0.1-0.5-0.1-0.7-0.2C293.7,41,293.4,40.9,293.2,40.9z M295.7,41.5v31.7c2.7-0.6,5-1.8,6.7-3.7c2.5-2.7,3.7-6.6,3.7-11.6
					c0-5-1.2-9-3.7-12C300.7,43.8,298.4,42.3,295.7,41.5z"/>
				
					<linearGradient id="SVGID_22_" gradientUnits="userSpaceOnUse" x1="-291.7772" y1="690.5469" x2="286" y2="690.5469" gradientTransform="matrix(1 0 0 1 294.7772 -636.6317)">
					<stop  offset="0" style="stop-color:#ECEAE8"/>
					<stop  offset="0" style="stop-color:#DFDCD9"/>
					<stop  offset="0" style="stop-color:#D4D0CC"/>
					<stop  offset="6.975419e-02" style="stop-color:#C5C2BE"/>
					<stop  offset="0.1461" style="stop-color:#B0ADAA"/>
					<stop  offset="0.5225" style="stop-color:#E6E6E6"/>
					<stop  offset="0.633" style="stop-color:#D9D8D7"/>
					<stop  offset="0.8443" style="stop-color:#B6B3B0"/>
					<stop  offset="0.8764" style="stop-color:#B0ADAA"/>
					<stop  offset="1" style="stop-color:#D9D9D9"/>
					<stop  offset="1" style="stop-color:#B1B1B0"/>
				</linearGradient>
				<path class="st21" d="M318.8,55.2h7.6c0.7,0,1.4-0.1,2-0.3c0.6-0.2,1.1-0.5,1.6-0.9l-0.9,7.1c0-0.6-0.2-1.3-0.6-1.9
					c-0.8-1.3-2.1-1.9-3.9-1.9h-5.8v13.5l0,0.6v0.6c0,0.5,0.1,1,0.4,1.4c0.3,0.4,0.7,0.8,1.2,1.2c0.5,0.4,1,0.6,1.5,0.8h-10.4
					c0.5-0.2,1-0.4,1.5-0.8c1-0.7,1.5-1.6,1.6-2.6V60.8h0l0-18.8c-0.5-1.1-1.8-1.9-3.7-2.5h18.6l1.4-0.6l-1.4,6.6
					c-0.1-0.7-0.3-1.3-0.6-2c-0.7-1.3-1.7-2-3.2-2h-6.9V55.2z"/>
			</g>
		</g>
	</g>
</g>
</svg>
